<svg width="109" height="133" viewBox="0 0 109 133" fill="none" xmlns="http://www.w3.org/2000/svg">
<path d="M86.4054 69.074C85.0985 75.4218 85.0985 76.3553 84.7251 78.7824C84.7251 79.1558 84.5384 79.5292 84.3517 79.9026C82.6715 80.8361 80.6177 81.9563 78.3773 82.8898C75.9503 83.8233 73.8966 84.5701 71.8429 85.1302C70.1626 82.3297 68.2956 79.1558 66.802 76.3553C70.9094 71.6878 75.0167 67.0203 78.9374 62.3529C79.8709 62.1662 80.6178 61.9795 81.5513 61.7928C83.2316 63.8465 84.9118 66.0869 86.592 68.1406C86.592 68.514 86.5921 68.7006 86.4054 69.074ZM83.2315 85.877C83.0448 86.8105 82.8581 87.3706 82.6714 88.1174C81.7379 91.6647 80.8044 95.3987 80.2443 96.7056C80.2443 96.8923 80.0576 97.0789 80.0576 97.0789C79.3108 95.7721 78.5641 94.2785 77.8173 92.9716C79.6843 90.1711 81.3645 87.1839 83.2315 84.1967C83.4182 83.8233 83.7916 83.4499 83.9783 83.0765C83.6049 83.8233 83.4182 84.7568 83.2315 85.877ZM76.3236 92.0381C75.7635 91.2913 75.2035 90.3578 74.6434 89.611C74.27 89.2376 74.4566 89.4243 73.8965 88.4908C73.3364 87.744 72.9631 87.1839 72.7764 86.6238C72.9631 86.6238 73.3365 86.4371 73.7099 86.2504C74.8301 85.877 75.9502 85.5036 76.3236 85.3169C78.564 84.5701 79.1241 84.1967 81.9246 83.2632C82.4847 83.0765 83.0448 82.8898 83.2315 82.7031C80.9911 85.877 78.9374 89.0509 76.697 92.0381C76.5103 92.2248 76.5103 92.0381 76.3236 92.0381ZM72.5896 97.8257C71.6561 99.3193 70.7226 100.626 69.7891 101.746C68.1088 102.307 66.4285 102.68 64.5616 102.68C64.1882 102.493 64.0015 102.307 63.6281 102.12C62.3212 101.186 60.0808 99.3194 59.1473 98.3859C58.2138 97.6391 57.467 96.8922 56.7202 96.1455C57.2803 94.6519 57.8404 93.345 58.4005 91.8514C58.7739 90.7312 59.334 89.7977 59.7074 88.6775C63.6281 88.3041 67.362 87.9307 71.096 86.8105C72.2162 88.3041 72.963 90.1711 74.2699 91.6647C74.6433 92.0381 74.83 92.5982 75.2034 92.9716C74.4566 94.6519 73.7098 96.3321 72.5896 97.8257ZM54.6665 94.2785C53.5463 92.4115 52.4261 90.5445 51.3059 88.8642C52.4261 88.8642 53.3597 88.8642 54.4799 88.8642C55.4134 88.8642 56.3468 88.8642 57.2803 88.8642C56.3468 90.7312 55.6 92.5982 54.6665 94.2785ZM52.4261 97.0789C50.5591 99.3193 48.5054 101.373 46.4517 103.053C44.7714 102.867 41.0375 101.933 40.104 101.56C40.104 101.56 36.7433 96.1455 35.2497 93.9051C35.8098 92.7849 36.37 91.478 36.9301 90.3578C37.4902 89.2376 38.0502 88.1174 38.4236 86.9972C38.797 86.9972 39.1705 87.1839 39.7306 87.1839C42.5311 87.744 44.5847 87.9307 44.9581 88.1174C45.8916 88.3041 46.8251 88.3041 47.1985 88.4908C47.9453 88.6775 48.5054 88.6775 49.0655 88.6775C49.2522 89.0509 49.6256 89.4243 49.999 89.9844C50.3724 90.5445 52.9862 95.5854 53.3596 96.3322C52.7995 96.5189 52.6128 96.7055 52.4261 97.0789ZM26.8483 83.0765C29.8355 84.1967 33.3828 85.3169 36.7434 86.2504C35.8099 88.3041 34.8764 90.1711 33.9429 92.2248C31.3291 89.611 29.2754 86.0637 26.8483 83.0765ZM30.5823 97.4524C30.0222 96.8923 29.4621 96.3321 29.2754 95.9587C28.3419 94.6518 27.9686 93.1583 27.4085 89.9844C27.2218 89.4243 27.2217 88.8642 27.2217 88.8642C27.2217 88.4908 27.035 87.9307 27.035 87.5573C26.8483 86.6238 26.6617 86.2504 26.475 85.5036C26.475 85.1302 26.2882 84.3834 26.2882 83.4499C28.5286 86.8105 30.9557 90.3578 33.1961 93.7184C32.2626 95.0253 31.5157 96.3322 30.5823 97.4524ZM24.2345 74.8617C23.8611 72.9947 23.6744 71.3145 23.301 69.4475C24.7946 67.0204 26.6616 64.4066 28.1552 61.7928C29.2754 62.1662 29.8355 62.3529 30.9557 62.5396C34.3163 66.647 37.8635 71.3144 41.2241 75.4218C40.4773 76.9154 39.9173 78.5957 39.1705 80.0893C38.4237 81.5829 37.8635 83.0765 37.1167 84.5701C35.8098 84.1967 34.3162 83.8233 32.4492 83.2632C29.6488 82.3297 28.3419 81.9563 26.8483 81.0228C26.1015 80.6494 25.5414 80.0893 25.168 79.9026C24.9813 78.5957 24.6079 76.7287 24.2345 74.8617ZM47.9454 86.9972C46.4518 86.8105 44.7714 86.6238 43.0911 86.2504C41.5975 85.877 40.2907 85.6903 38.7971 85.3169C39.5439 83.8233 40.1039 82.3297 40.8507 80.8361C41.4108 79.7159 41.7843 78.409 42.3444 77.2888C44.2114 80.4627 46.0784 83.8233 47.9454 86.9972ZM51.6794 65.5268C52.9863 65.3401 54.6665 65.3401 55.7867 65.5268C57.2803 67.2071 58.7739 68.8873 60.2675 70.7543C61.7611 72.4346 63.2547 74.3017 64.5616 75.9819C62.5079 79.7159 60.4542 83.6366 58.0271 87.1839C56.7202 87.3706 55.4133 87.3706 53.9197 87.3706C52.6128 87.3706 51.3059 87.3706 49.999 87.1839C47.5719 83.2632 45.3316 79.3425 42.9045 75.4218C46.0784 72.2479 48.8789 68.8874 51.6794 65.5268ZM65.1216 78.5957C65.3083 78.2223 65.4951 77.6622 65.8685 77.2888C66.9887 79.3425 68.2956 81.5829 69.4158 83.6366C69.7892 84.1967 70.1626 84.7568 70.3493 85.3169C70.1626 85.3169 69.7892 85.5036 69.4158 85.5036C68.669 85.6903 66.6152 86.0637 66.0551 86.2504C63.8147 86.6238 62.1345 86.8105 61.7611 86.9972C61.201 86.9972 60.8276 86.9972 60.6409 86.9972C60.8276 86.8105 60.8276 86.6238 60.8276 86.6238C61.0143 86.2504 61.3877 85.6903 62.1345 84.1967C62.1345 84.01 62.3211 83.8233 62.3211 83.8233C62.6945 83.0765 63.4413 81.5829 65.1216 78.5957ZM91.4463 52.6445C91.2596 53.0179 91.0729 53.3913 90.8862 53.7647C89.0192 56.9386 83.2316 59.5524 75.0168 61.2327C71.0961 62.1662 64.7482 63.0997 55.7867 63.0997C55.6 63.0997 54.8532 63.0997 53.9197 63.0997C52.6128 63.0997 51.1192 63.0997 51.1192 63.0997C48.5054 63.0997 46.0783 62.913 44.0246 62.7263C43.8379 62.7263 43.8379 62.7263 43.6512 62.7263C30.7689 61.4194 20.874 57.8721 18.6336 53.578C18.4469 53.3913 18.4468 53.0179 18.2601 52.8312C18.2601 52.8312 18.2601 52.8312 18.0734 52.8312C18.0734 53.2046 17.8867 53.578 17.8867 53.9514C18.2601 54.8849 18.6335 56.1918 19.0069 57.6854C19.3803 59.3657 19.7537 60.6726 19.9404 61.4194C20.8739 66.6469 22.1808 70.3809 22.5542 73.7415C22.7409 75.0484 23.301 76.9154 23.1143 78.2223C22.1808 79.3425 22.3675 81.2095 23.6744 81.9563C24.2345 82.143 24.4212 82.5164 24.6079 83.0765C25.9148 87.9307 25.9148 90.7312 27.9685 95.7721C30.0222 101.746 42.9045 104.174 48.8789 104.734C58.5872 105.107 71.4694 105.294 80.431 98.1992C81.5512 95.3987 82.1113 92.4115 82.8581 89.4243C83.2315 86.9972 83.9783 84.5701 84.5384 82.3297C84.5384 81.9563 84.7251 81.9563 85.0985 81.7696C85.4719 81.7696 85.6586 81.3962 85.8453 81.2095C86.2187 80.8361 86.5921 80.6494 86.7788 80.0893C86.5921 79.1558 86.5921 78.2223 85.4719 78.0357C87.1522 69.8209 88.2724 65.3401 89.2059 62.5396C89.3926 61.9795 89.7659 60.2992 90.326 58.0588C90.8861 56.0051 91.2596 54.3248 91.4463 53.2046C91.633 53.2046 91.633 53.0179 91.4463 52.6445Z" fill="white"/>
<path d="M55.0389 49.2852C53.9187 49.2852 53.1719 49.4719 53.1719 49.8453C53.1719 50.2187 54.1054 50.4054 55.0389 50.4054C56.1591 50.4054 56.9059 50.2187 56.9059 49.8453C56.9059 49.4719 55.9724 49.2852 55.0389 49.2852Z" fill="white"/>
<path d="M72.4031 49.2804C72.2164 49.2804 72.2164 49.2804 72.4031 49.2804C72.2164 49.2804 72.2164 49.2804 72.4031 49.2804C72.2164 49.2804 72.2164 49.0938 72.2164 49.0938C72.0297 49.0938 71.843 49.0938 71.843 49.0938C71.6563 49.0938 71.6562 49.2804 71.6562 49.4671C71.8429 49.4671 72.0297 49.4671 72.0297 49.4671C72.2164 49.6538 72.403 49.8405 72.5897 50.0272C72.7764 50.2139 72.7765 50.5873 72.7765 50.774C72.7765 50.9607 72.7765 50.9607 72.7765 51.1474C72.7765 51.1474 72.7764 51.1474 72.5897 51.1474H72.4031C72.5898 51.3341 72.9632 51.3341 73.1499 51.3341C73.3366 51.3341 73.3366 51.1474 73.3366 50.774C73.3366 50.4006 73.3366 50.2139 73.1499 49.8405C72.7765 49.6538 72.5898 49.4671 72.4031 49.2804Z" fill="white"/>
<path d="M48.8799 42.9311C50.1868 42.7444 51.4936 42.7444 52.8005 42.7444C52.8005 42.7444 53.1739 42.7444 53.3606 42.7444C53.3606 42.5577 52.9872 42.5577 52.8005 42.5577C52.0537 42.5577 51.1202 42.5577 50.3734 42.7444C50.1867 42.7444 50 42.9311 50 42.7444C50 42.5577 50.1867 42.7444 50.3734 42.5577C51.6803 42.371 52.9872 42.371 54.1074 42.371H54.2941H54.1074C52.6138 42.371 49.8133 42.371 48.3197 42.371H48.133H48.3197C48.6931 42.371 49.0665 42.371 49.6266 42.1843C50.3734 41.9976 53.3606 42.1843 53.5473 41.8109C53.734 41.6242 52.0537 41.6242 52.0537 41.4375C52.0537 41.2508 54.1073 41.2508 54.8541 41.2508C55.7876 41.2508 56.7211 41.2508 57.6546 41.2508C58.2147 41.2508 58.7749 41.2508 59.1483 41.2508C60.4552 41.2508 61.2019 41.4376 62.3221 41.6243C62.5088 41.6243 63.069 41.9976 62.1355 41.8109C60.2685 41.6242 60.0818 41.6243 58.7749 41.6243C58.2148 41.6243 57.8414 41.6243 57.0946 41.6243H56.5345C56.5345 41.6243 56.7211 41.6242 56.7211 41.8109C57.0945 41.8109 57.2812 41.8109 57.6546 41.9976C58.4014 42.1843 59.335 42.371 60.0818 42.371H60.2685H60.0818C59.1483 42.371 58.4014 42.371 57.6546 42.371C57.4679 42.371 57.2813 42.371 57.2813 42.371H57.6546C58.7748 42.5577 61.0153 42.5577 61.0153 42.7444C61.0153 42.9311 57.8414 42.7444 57.8414 42.7444H57.2813C57.0946 42.7444 57.0946 42.7444 57.0946 42.7444C57.0946 42.7444 57.4679 42.7444 57.6546 42.7444H58.2148H57.6546C57.4679 42.7444 57.2813 42.7444 57.2813 42.7444H57.6546C58.4014 42.7444 59.335 42.9311 59.335 42.9311C59.5217 42.9311 58.7749 42.9311 58.4015 42.9311C58.2148 42.9311 57.8414 42.9311 57.8414 43.1178C57.8414 43.3045 58.4015 43.3045 58.4015 43.3045C59.335 43.3045 60.0818 43.4912 61.0153 43.4912C61.202 43.4912 61.3886 43.4912 61.3886 43.6779C61.3886 43.6779 61.202 43.6779 61.0153 43.6779C60.2685 43.6779 59.5217 43.6779 58.7749 43.6779C58.5882 43.6779 58.0281 43.6779 58.0281 43.8646C58.0281 43.8646 59.8951 44.0513 60.2685 44.238C60.2685 44.238 60.2685 44.238 60.0818 44.238C59.335 44.238 58.7749 44.238 58.0281 44.0513C57.8414 44.0513 57.468 44.0513 57.468 44.238C57.468 44.238 57.8414 44.238 58.0281 44.4247C58.5882 44.4247 59.1483 44.6114 59.7084 44.6114C59.7084 44.6114 59.8951 44.6114 59.8951 44.7981H59.7084C59.1483 44.7981 58.5882 44.6114 58.0281 44.6114C57.8414 44.6114 57.468 44.6114 57.468 44.6114C57.468 44.6114 57.8414 44.6114 58.0281 44.7981C58.4015 44.9848 59.335 45.1715 59.335 45.1715C59.335 45.3582 57.2813 44.9848 56.3478 45.1715C55.2276 45.1715 54.1073 45.3582 52.9872 45.5449C52.8005 45.5449 52.6138 45.5449 52.6138 45.5449C52.6138 45.3582 52.8005 45.5449 52.9872 45.3582C53.7339 45.3582 54.4808 45.1715 55.4143 45.1715H55.601H55.4143C54.8542 45.1715 54.2941 45.1715 53.734 45.1715C53.5473 45.1715 53.3606 45.1715 53.3606 45.1715C53.3606 44.9848 53.5473 44.9848 53.734 44.9848C54.2941 44.9848 55.2276 44.7981 55.0409 44.6114C55.0409 44.6114 53.9207 44.7981 53.3606 44.7981H53.1739C52.9872 44.7981 52.8005 44.7981 52.8005 44.7981C52.8005 44.7981 52.9872 44.7981 53.1739 44.6114C53.1739 44.6114 53.9207 44.6114 53.734 44.4247C53.5473 44.4247 52.9872 44.4247 52.9872 44.4247H53.1739C53.5473 44.4247 53.9207 44.4247 54.1074 44.238H54.2941H54.1074C53.3606 44.238 52.6138 44.4247 51.6803 44.4247C51.4936 44.4247 51.1202 44.4247 51.1202 44.4247C51.1202 44.4247 51.4936 44.238 51.6803 44.238C52.4271 44.0513 52.9872 44.0513 53.734 43.8646H53.9206H53.734C52.6138 43.8646 51.4936 44.0513 50.1867 44.0513C50.1867 44.0513 50.0001 44.0513 49.8134 44.0513H50C50.7468 43.8646 51.4936 43.8646 52.4271 43.6779C52.6138 43.6779 52.8005 43.6779 52.8005 43.4912C52.8005 43.4912 52.4271 43.4912 52.4271 43.3045H52.2404H52.4271C53.3606 43.3045 53.734 43.3045 54.6675 43.1178C54.6675 43.1178 55.4143 43.1178 55.4143 42.9311H54.8541C54.294 42.9311 54.1074 42.9311 53.5473 42.9311H53.3606H53.5473C53.9207 42.9311 54.2941 42.9311 54.6675 42.7444H54.8541H54.6675C53.9207 42.7444 53.1739 42.7444 52.4271 42.9311C51.4936 42.9311 50.7469 43.1178 49.8134 43.1178C49.6267 43.1178 49.2532 43.1178 49.0665 43.1178C48.8798 43.1178 48.6932 43.1178 48.8799 42.9311C48.6932 42.9311 48.6932 42.9311 48.8799 42.9311ZM83.2325 43.3045C83.2325 43.3045 82.2989 42.9311 81.9255 42.7444V42.5577C82.1122 41.811 82.1123 41.2508 82.299 40.504C82.299 40.3173 82.299 40.3173 82.1123 40.1306C82.1123 39.9439 81.9256 39.944 81.7389 39.7573C81.5522 39.5706 81.1788 39.5705 81.1788 39.5705C80.9921 39.5705 80.6187 39.5706 80.432 39.7573C80.2453 39.944 80.2453 40.1307 80.0586 40.6908C80.0586 41.0642 79.8719 41.4375 79.8719 41.4375C79.8719 41.4375 79.8719 41.6242 79.8719 41.9976V42.1843C79.4985 41.9976 79.1251 41.9976 78.7517 41.8109C78.7517 41.6242 78.7517 40.6907 78.7517 40.504C78.7517 39.9439 78.7517 39.5706 78.7517 38.8238C80.0586 39.0105 81.5521 39.1971 82.859 39.3838C83.2324 40.504 83.2325 41.9976 83.2325 43.3045ZM81.3655 44.9848C81.1788 46.8518 79.6852 47.7853 78.565 48.3454C78.1916 48.5321 76.5113 49.2789 76.1379 49.4656C76.1379 49.2789 76.138 49.0922 75.9513 48.7188C75.9513 48.7188 75.9512 48.5321 75.7645 48.5321L75.5778 48.3454C75.9512 48.1587 78.0049 47.4119 79.3118 46.2917C79.8719 45.9183 80.0586 44.4247 80.2453 43.6779C80.432 43.1178 80.6187 41.6243 80.6187 41.6243C80.6187 41.6243 80.6187 41.4375 80.8054 40.8774C80.8054 40.3173 80.9921 40.1306 80.9921 40.1306C81.1787 39.9439 81.3655 39.9439 81.5522 39.9439C81.5522 39.9439 81.7389 39.9439 82.1123 40.1306L82.299 40.3173C82.299 40.504 82.299 40.5041 82.299 40.6908C81.9256 41.0642 81.3655 44.4247 81.3655 44.9848ZM75.9513 49.6523C75.9513 49.839 75.9513 49.839 75.9513 49.839C75.7646 49.839 75.3912 50.0257 75.0178 50.2124L74.4576 50.3991C74.4576 50.0257 74.4577 49.6523 74.0843 49.2789C73.8976 48.9055 73.7108 48.7188 73.3374 48.5321C73.5241 48.5321 74.6443 47.972 74.6443 47.972C74.831 47.972 75.0177 48.1587 75.2044 48.3454C75.2044 48.3454 75.3911 48.3454 75.3911 48.5321C75.3911 48.5321 75.3911 48.7188 75.5778 48.7188C75.9512 49.0922 75.9513 49.2789 75.9513 49.6523ZM74.2709 50.5858C74.2709 50.7725 74.0843 50.9592 74.0843 51.1459L73.1508 51.5193C73.1508 51.5193 73.1507 51.5193 72.964 51.706H72.7773C72.5906 51.706 72.404 51.706 72.2173 51.5193C71.8439 51.706 71.4704 51.8927 71.4704 51.8927C71.2837 51.8927 67.9232 54.8799 67.5498 55.0666L66.4295 55.44H66.2429C66.2429 55.44 66.2428 55.2533 66.4295 55.2533L66.2429 55.44C66.2429 55.44 66.0561 55.44 66.0561 55.2533C66.0561 55.2533 66.4295 54.6932 66.4295 54.5065C66.4295 54.5065 67.3631 53.7597 68.1099 52.8262C69.4168 51.706 70.9104 50.2124 70.9104 50.2124C70.9104 50.2124 71.0971 50.0257 71.2838 49.839C71.2838 49.6523 71.4704 49.4656 71.6571 49.2789H71.8438L72.5906 48.9055C72.7773 48.9055 72.9641 48.9055 73.1508 48.9055C73.3375 48.9055 73.5241 49.0922 73.5241 49.2789C73.7108 49.4656 73.7108 49.6523 73.8975 49.6523C74.2709 49.839 74.2709 50.2124 74.2709 50.5858ZM55.0409 52.4528C50.3734 52.4528 46.6394 51.3326 46.6394 49.839C46.6394 48.3454 50.3734 47.2252 55.0409 47.2252C59.7084 47.2252 63.4424 48.3454 63.4424 49.839C63.4424 51.3326 59.7084 52.4528 55.0409 52.4528ZM55.0409 53.3863H54.6675C54.6675 53.3863 55.2276 53.3863 55.4143 53.3863C55.601 53.3863 55.601 53.3863 55.601 53.7597C55.601 53.7597 55.9744 53.7597 56.3478 53.7597H56.7211C56.7211 53.7597 56.3478 53.9464 56.1611 53.9464C55.2276 54.1331 54.6675 54.1331 53.734 53.9464C53.734 53.9464 53.3606 53.9464 53.3606 53.7597L53.734 53.573C54.1074 53.573 54.4807 53.573 54.8541 53.573C55.0408 53.573 55.4143 53.573 55.2276 53.3863C55.4143 53.3863 55.2276 53.3863 55.0409 53.3863ZM61.9488 56.7469C60.6419 56.9335 59.1483 56.9336 57.8414 56.9336H57.6546C57.6546 57.1203 58.0281 57.1203 58.2148 57.1203C58.9616 57.1203 59.8951 57.1203 60.6419 56.9336C60.8286 56.9336 61.0153 56.7469 61.0153 56.9336C61.0153 57.1203 60.8286 57.1203 60.6419 57.1203C59.335 57.1203 58.0281 57.307 56.9079 57.307H56.7211H56.9079C58.4015 57.307 59.7084 57.1203 61.202 57.1203H61.3886H61.202C60.8286 57.1203 60.4551 57.1203 59.8951 57.307C59.1483 57.4937 57.6547 57.4936 57.468 57.6803C57.2813 57.6803 58.2148 57.8671 58.2148 58.0538C58.2148 58.2405 56.9079 58.2405 56.3478 58.2405C55.4143 58.2405 54.4808 58.2405 53.5473 58.2405C52.9872 58.2405 52.4271 58.2405 52.0537 58.0538C50.9335 57.6804 50.0001 57.867 48.8799 57.6803C48.6932 57.6803 48.5064 57.6804 48.5064 57.4937C48.5064 57.307 51.1202 57.4937 52.4271 57.4937C52.9872 57.4937 53.734 57.4937 54.2941 57.4937H54.4808C54.4808 57.4937 54.2941 57.4937 54.2941 57.307C53.9207 57.307 53.734 57.307 53.3606 57.1203C52.6138 56.9336 51.6803 56.7469 50.9335 56.7469H50.7469H50.9335C51.867 56.7469 52.6138 56.7469 53.3606 56.7469C53.5473 56.7469 53.734 56.7469 53.734 56.7469C53.734 56.7469 53.3606 56.7469 53.3606 56.5602C52.2404 56.3735 50 56.3735 50 56.1868C50 56.0001 53.1739 56.1868 53.1739 56.1868H53.734C53.9207 56.1868 53.9206 56.1868 53.9206 56.1868C53.9206 56.1868 53.5473 56.1868 53.3606 56.1868H52.8005H53.3606C53.5473 56.1868 53.734 56.1868 53.734 56.1868H53.3606C52.6138 56.1868 51.6803 56.0001 51.6803 56.0001C51.4936 56.0001 52.2404 56.0001 52.6138 56.0001C52.8005 56.0001 53.1739 56.0001 53.1739 55.8134C53.1739 55.6267 52.6138 55.6267 52.6138 55.6267C51.6803 55.44 50.9335 55.44 50 55.44C49.8133 55.44 49.6266 55.44 49.6266 55.2533C49.6266 55.2533 49.8133 55.2533 50 55.2533C50.7468 55.2533 51.4936 55.2533 52.2404 55.2533C52.4271 55.2533 52.9872 55.2533 52.9872 55.0666C52.9872 55.0666 51.1202 54.8799 50.7469 54.6932C50.7469 54.6932 50.7468 54.6932 50.9335 54.6932C51.6803 54.6932 52.2404 54.6932 52.9872 54.8799C53.1739 54.8799 53.5473 54.8799 53.5473 54.6932C53.5473 54.6932 53.1739 54.6932 52.9872 54.5065C52.4271 54.5065 51.867 54.3198 51.3069 54.3198C51.3069 54.3198 51.1202 54.3198 51.1202 54.1331H51.3069C51.867 54.1331 52.4271 54.3198 52.9872 54.3198C53.1739 54.3198 53.5473 54.3198 53.5473 54.1331H53.1739C52.8005 53.9464 51.867 53.7597 51.867 53.7597C51.867 53.573 53.9206 53.9464 54.8541 53.7597C55.9743 53.7597 57.0946 53.573 58.2148 53.3863C58.4015 53.3863 58.5881 53.3863 58.5881 53.3863C58.5881 53.573 58.4015 53.3863 58.2148 53.573C57.468 53.573 56.7211 53.7597 55.7876 53.7597H55.601H55.7876C56.3477 53.7597 56.9079 53.7597 57.468 53.7597C57.6547 53.7597 57.8414 53.7597 57.8414 53.7597C57.8414 53.9464 57.6547 53.9464 57.468 53.9464C56.9079 53.9464 56.1611 54.1331 56.1611 54.3198C56.1611 54.3198 57.2813 54.1331 57.8414 54.1331H58.0281C58.2148 54.1331 58.4015 54.1331 58.4015 54.1331C58.4015 54.1331 58.2148 54.3198 58.0281 54.3198C57.8414 54.3198 57.0946 54.3198 57.2813 54.5065C57.6547 54.6932 58.0281 54.5065 58.0281 54.5065C58.2148 54.5065 58.7749 54.5065 58.7749 54.5065L58.0281 54.6932C57.6547 54.6932 57.2813 54.6932 57.0946 54.8799H56.9079H57.0946C57.8414 54.8799 58.5881 54.6932 59.5216 54.6932C59.7083 54.6932 60.0818 54.6932 60.0818 54.6932C60.0818 54.6932 59.7083 54.8799 59.5216 54.8799C58.7748 55.0666 58.2148 55.0666 57.468 55.2533H57.2813H57.468C58.5882 55.2533 59.7084 55.0666 61.0153 55.0666C61.0153 55.0666 61.2019 55.0666 61.3886 55.0666H61.202C60.4552 55.2533 59.7084 55.2533 58.7749 55.44C58.5882 55.44 58.4015 55.44 58.4015 55.6267C58.4015 55.6267 58.7749 55.6267 58.7749 55.8134C58.9616 55.8134 58.9616 55.8134 58.9616 55.8134H58.7749C57.8414 55.8134 57.468 55.8134 56.5345 56.0001H55.9744C55.9744 56.0001 56.5344 56.0001 56.7211 56.0001C57.2812 56.0001 57.2812 56.0001 57.6546 56.0001H57.8414H57.6546C57.2812 56.0001 56.9079 56.0001 56.5345 56.1868H56.3478H56.5345C57.2813 56.1868 58.0281 56.1868 58.7749 56.0001C59.7084 56.0001 60.4551 55.8134 61.3886 55.8134C61.5753 55.8134 61.9488 55.8134 62.1355 55.8134C61.9488 56.5602 61.9488 56.5602 61.9488 56.7469ZM52.4271 59.174C52.4271 59.174 52.2404 59.174 52.4271 59.174C52.0537 59.174 51.3069 58.9873 51.4936 58.9873C51.4936 58.9873 52.0537 58.9873 52.2404 58.9873C53.5473 58.9873 54.8542 58.9873 56.1611 59.174C56.7212 59.174 58.2148 59.174 58.2148 59.3607C58.2148 59.5474 54.2941 59.5474 52.4271 59.174ZM83.6059 39.1971C84.3527 38.8237 85.0995 38.637 85.8463 38.2636C85.8463 39.1971 85.8462 40.3173 85.6595 41.2508C84.9127 41.8109 84.166 42.371 83.6059 42.9311C83.4192 41.8109 83.6059 40.504 83.6059 39.1971ZM83.4192 43.3045C83.4192 43.3045 85.0995 41.9976 85.8463 41.2508C85.8463 41.0641 85.8463 41.0641 85.8463 40.8774C85.8463 40.6907 86.033 38.8238 86.033 37.8903C83.6059 37.3302 81.3655 36.9567 78.9384 38.0769L78.7517 41.6243C72.5907 39.7573 64.1891 38.6371 54.8541 38.6371C35.6241 38.4504 19.9414 43.4912 19.9414 49.6523C19.9414 55.8134 35.6241 60.6675 54.8541 60.6675C74.0842 60.6675 89.3935 55.8134 89.7669 49.6523C90.1403 47.4119 87.7133 45.1715 83.4192 43.3045Z" fill="white"/>
<path d="M104.515 15.6757C102.461 15.489 100.034 16.7959 99.8474 19.7831C89.9523 16.7959 79.8705 14.7422 69.6021 13.8087C69.6021 11.1949 69.2286 9.14123 69.2286 9.14123C68.6685 9.32793 67.9217 9.32795 67.3616 9.51465C67.9217 11.755 67.9217 14.3688 67.9217 15.3023C67.9217 16.4225 67.7351 17.5427 67.7351 17.5427C67.7351 17.7294 67.7351 17.9161 67.7351 17.9161C67.7351 17.9161 67.5483 18.1028 67.3616 18.1028C65.3079 19.0363 63.441 19.7831 62.1341 20.1565C61.3873 20.3432 60.2671 20.7166 59.1469 21.09C59.1469 21.4634 59.1469 21.6501 59.1469 22.0235C60.8272 23.7038 62.5075 25.5708 64.0011 27.2511C64.0011 27.2511 66.8016 26.3176 68.4819 21.4634C68.8553 20.5299 69.0419 19.4097 69.2286 18.1028C69.602 21.09 69.9755 23.8905 69.9755 23.8905C69.9755 23.7038 88.0853 26.3176 96.1134 29.1181C96.4868 29.3048 97.0469 29.3048 97.4203 29.4915C97.607 29.4915 97.7936 29.4915 97.7936 29.6782C97.9803 29.4915 99.2872 27.6245 100.034 26.691C99.8473 27.9979 100.407 29.4915 100.968 30.425C101.154 30.6117 101.528 30.6117 101.714 30.7984C102.088 30.7984 102.648 30.9851 103.208 31.1718C103.955 31.3585 104.701 31.5452 104.701 31.5452C105.262 30.425 108.062 24.824 108.809 23.1437C109.556 19.4097 108.062 16.2358 104.515 15.6757ZM40.6637 3.16689C40.6637 3.72699 40.6636 4.10036 40.8503 4.66046C41.037 6.52745 41.2238 8.20774 41.4105 10.0747C41.7839 14.3688 42.1573 18.6629 42.5307 23.1437C42.7174 23.3304 42.9041 23.3304 42.9041 23.5171C43.0908 23.7038 43.2775 23.8905 43.4641 24.0772C43.8375 24.0772 44.2109 24.0772 44.5843 24.0772C44.2109 18.6629 43.8376 13.0619 43.2775 7.64766V7.46095C43.2775 7.27425 43.2775 6.90086 43.2775 6.71416L43.4641 6.52745C43.6508 6.34075 44.5844 4.84716 44.7711 4.66046C44.7711 4.66046 43.4641 2.79348 41.5972 0.179688C41.4105 0.926485 41.0371 2.04669 40.6637 3.16689ZM36.9297 9.70136C36.5563 10.6349 35.9962 11.3816 35.6228 12.3151C35.9962 12.6885 36.3696 13.062 36.5563 13.4354C37.1163 13.6221 37.6765 13.8087 38.2366 13.9954C35.2494 14.3688 32.0755 14.7422 29.0883 15.3023C28.3415 13.062 27.5947 11.3816 27.5947 11.3816C27.0346 11.5683 26.4745 11.9417 25.9144 12.1284C26.4745 13.2486 26.6612 14.5555 26.8479 15.6757C25.7277 15.8624 24.4208 16.2359 23.3006 16.4226C22.1804 16.6093 21.0602 16.9826 20.1267 17.1693C19.7533 17.356 19.1932 17.356 18.8198 17.5427C18.8198 17.5427 18.6332 15.8625 15.8327 13.6221C15.4593 14.929 15.2726 16.0492 14.8992 17.356C15.0859 17.356 17.513 18.6629 17.513 20.9033C17.513 22.957 15.4593 24.4506 14.7125 25.0107C12.8455 26.3176 8.92478 27.9979 6.31099 26.1309C4.6307 24.824 4.07059 22.2102 5.19079 19.7831C4.63069 19.7831 3.88389 19.5964 3.32379 19.5964C3.32379 19.5964 2.20359 23.1437 3.13708 26.1309C3.69718 27.9979 4.07059 29.3048 5.19079 31.1718C5.56419 31.9186 6.49769 32.8521 7.24449 33.5989C8.73809 34.7191 10.6051 35.0925 13.0322 34.9058C16.2061 34.5324 19.5666 33.0388 20.8735 30.425C21.4336 29.1181 21.6203 28.1846 21.4336 26.8777C21.247 26.5043 21.2469 26.1309 21.0602 25.5708C20.8735 24.6373 20.6868 23.7038 20.3134 22.957C22.7405 25.0107 23.8607 26.8777 23.8607 26.8777L29.0883 25.7575C29.0883 25.7575 30.9553 24.0772 30.7686 22.0235C31.3287 23.1437 31.8887 24.0772 32.4488 25.1974C33.3823 25.0107 40.2902 24.0772 40.2902 24.0772C39.9168 20.3432 39.5435 16.4226 39.1701 12.6886C39.1701 12.5019 39.17 12.3151 38.9833 11.9417C38.6099 11.5683 37.8632 10.2615 36.9297 9.70136ZM58.0267 18.4762C57.84 19.7831 57.4666 20.9033 57.4666 20.9033C57.4666 20.9033 57.0932 21.8368 56.5331 22.7703C55.2262 25.0107 52.9858 26.691 52.4257 27.2511C50.5587 25.5708 48.505 23.7038 46.4513 22.0235C46.4513 21.6501 46.4513 21.4634 46.4513 21.09C48.1316 21.09 49.6253 20.9033 50.7455 20.7166C53.3593 20.3432 54.4794 19.9698 55.2262 19.5964C55.7863 19.4097 56.1597 19.223 56.3464 19.0363C56.3464 18.2895 56.3464 16.4226 56.3464 15.4891C56.3464 15.4891 56.3464 15.3023 56.1597 15.3023C56.1597 15.3023 55.973 15.3024 55.973 15.4891C55.2262 16.6093 54.2927 17.356 53.7326 17.9161C53.1725 18.4762 52.7991 18.6629 52.239 18.6629C51.6789 18.6629 51.3055 18.4762 50.5587 18.2895C49.4385 17.9161 48.6918 17.356 48.5051 16.9826C47.945 16.6092 47.5715 16.2358 47.3848 15.8624C47.3848 15.8624 46.8247 15.1156 46.8247 14.3688C46.4513 12.1285 49.0652 7.83437 52.6125 7.83437C52.7992 7.83437 53.546 7.83434 54.4795 8.20774C58.7735 9.88803 58.2134 17.1693 58.0267 18.4762Z" fill="white"/>
<path d="M52.054 122.281C52.054 119.107 49.8136 117.24 45.3329 117.053C43.2792 116.866 41.4121 116.68 39.3585 116.493C38.7984 121.72 38.2383 126.761 37.4915 131.989C38.6117 132.176 39.9186 132.176 41.0388 132.362C41.4122 132.362 41.9723 132.362 42.3457 132.549C42.5324 132.549 42.9057 132.549 43.0924 132.549C43.2791 130.869 43.2792 129.188 43.4659 127.508C43.6526 127.508 43.6526 127.508 43.8393 127.508H44.0259C44.0259 127.508 44.026 127.508 44.2127 127.508C45.1462 129.188 46.0797 130.869 47.0132 132.736C48.8802 132.736 50.5604 132.922 52.4274 132.922C52.4274 132.736 52.4274 132.736 52.4274 132.549C51.1205 130.682 50.0004 128.815 48.8802 126.948C51.1206 125.828 52.054 124.334 52.054 122.281ZM13.4073 118.547C13.0339 115.933 12.8472 113.319 12.6605 110.705C10.6068 109.958 8.3664 109.212 6.31271 108.465C4.44571 113.319 2.57873 118.173 0.898438 123.027C2.39203 123.587 3.88563 124.148 5.56592 124.708C5.75262 124.521 5.93931 124.521 6.31271 124.334C6.8728 122.467 7.6196 120.414 8.1797 118.547C8.5531 117.426 8.9265 116.119 9.1132 114.626C9.2999 117.426 9.67328 120.04 9.85998 122.841C11.1669 123.214 12.2871 123.587 13.594 123.961C15.461 121.907 17.1412 119.667 18.8215 117.613C18.2614 119.107 17.7014 120.414 17.5147 121.534C16.9546 123.587 16.3945 125.828 15.8344 127.882C17.7014 128.442 19.5684 128.815 21.4354 129.188C22.5556 124.148 23.6757 119.107 24.7959 114.066C22.7422 113.506 20.5019 113.132 18.4482 112.386C16.7679 114.439 15.0876 116.493 13.4073 118.547ZM80.2457 114.999C79.4988 120.227 78.5653 125.454 77.6318 130.682C77.6318 130.869 77.8186 131.055 77.8186 131.055C79.3122 130.869 80.9925 130.495 82.4861 130.309C82.6728 129.375 82.8594 128.255 82.8594 127.321C84.7264 126.948 86.5934 126.575 88.4604 126.201C89.0204 127.135 89.5806 127.882 89.954 128.815C91.821 128.442 93.688 127.882 95.555 127.321C95.555 127.135 95.555 127.135 95.555 126.948C92.3811 122.467 89.5806 117.987 86.7801 113.506C84.7264 114.253 82.486 114.626 80.2457 114.999ZM78.1919 115.373C76.6983 115.559 75.2048 115.933 73.7112 116.12C73.1511 119.854 72.4043 123.588 71.4708 127.508C70.1639 124.334 68.857 121.16 67.7368 117.987C66.2432 118.36 64.5629 118.547 62.8826 118.92C62.1358 122.094 61.389 125.268 60.6422 128.442C59.522 124.894 58.5885 121.16 57.655 117.426C55.9747 117.613 54.1077 117.8 52.4274 117.987C53.7343 123.027 55.0412 127.882 56.5348 132.922C58.9619 132.922 61.389 132.736 64.0028 132.736C64.5629 129.935 65.123 127.135 65.6831 124.521C66.6166 127.135 67.5501 129.935 68.4836 132.549C70.9107 132.362 73.3377 131.989 75.7648 131.802C76.885 126.575 77.8186 121.347 78.3787 116.12C78.3787 115.746 78.1919 115.559 78.1919 115.373ZM30.0235 124.521C31.7038 124.894 33.5708 125.081 35.251 125.268C35.4377 124.148 35.6245 123.027 35.6245 122.094C33.9442 121.907 32.0772 121.534 30.3969 121.347C30.5836 120.414 30.7703 119.667 30.7703 118.733C32.824 119.107 34.691 119.293 36.7447 119.667C36.9314 118.547 37.118 117.426 37.118 116.306C33.3841 115.746 29.8368 115.186 26.1028 114.439C24.9826 119.48 23.8624 124.521 22.9289 129.562C27.0363 130.495 31.3304 131.242 35.4378 131.616C35.6245 130.495 35.8112 129.375 35.8112 128.255C33.5708 127.882 31.3304 127.695 29.09 127.321C29.6501 126.388 29.8368 125.454 30.0235 124.521ZM108.064 118.547C109.184 121.347 107.13 124.148 103.023 125.641C100.783 126.388 98.7288 126.575 96.8618 126.201C96.8618 124.894 96.8619 123.587 96.6752 122.281C98.3555 122.841 100.036 122.841 101.903 122.281C103.396 121.72 103.956 121.347 103.77 120.6C103.583 120.04 103.023 120.04 101.716 120.04C101.156 120.04 100.596 120.04 100.036 120.04C96.4884 120.04 94.8082 118.733 94.2481 116.306C93.5013 113.319 95.3683 111.079 99.289 109.772C100.783 109.212 102.089 109.025 103.023 109.025C103.396 110.145 103.956 111.265 104.33 112.572C103.023 112.572 101.529 112.759 100.222 113.132C98.7289 113.692 97.982 114.253 98.1687 114.813C98.3554 115.373 98.7289 115.373 100.783 115.373C101.156 115.373 101.716 115.373 102.089 115.373C105.45 115.186 107.317 116.12 108.064 118.547Z" fill="white"/>
</svg>
