<svg width="17" height="17" viewBox="0 0 17 17" fill="none" xmlns="http://www.w3.org/2000/svg">
<path d="M12.3085 0H4.69129C2.10451 0 0 2.10461 0 4.69139V12.3086C0 14.8955 2.10451 17 4.69129 17H12.3085C14.8955 17 17 14.8954 17 12.3086V4.69139C17.0001 2.10461 14.8955 0 12.3085 0ZM15.4918 12.3086C15.4918 14.0638 14.0638 15.4917 12.3086 15.4917H4.69129C2.9362 15.4918 1.50832 14.0638 1.50832 12.3086V4.69139C1.50832 2.9363 2.9362 1.50832 4.69129 1.50832H12.3085C14.0637 1.50832 15.4917 2.9363 15.4917 4.69139V12.3086H15.4918Z" fill="white"/>
<path d="M8.50156 4.12109C6.08614 4.12109 4.12109 6.08614 4.12109 8.50156C4.12109 10.9169 6.08614 12.8818 8.50156 12.8818C10.917 12.8818 12.882 10.9169 12.882 8.50156C12.882 6.08614 10.917 4.12109 8.50156 4.12109ZM8.50156 11.3734C6.91793 11.3734 5.62942 10.0851 5.62942 8.50146C5.62942 6.91772 6.91783 5.62932 8.50156 5.62932C10.0853 5.62932 11.3737 6.91772 11.3737 8.50146C11.3737 10.0851 10.0852 11.3734 8.50156 11.3734Z" fill="white"/>
<path d="M13.0631 2.83984C12.7725 2.83984 12.4871 2.95749 12.2818 3.16363C12.0756 3.36876 11.957 3.65434 11.957 3.94595C11.957 4.23665 12.0757 4.52213 12.2818 4.72826C12.487 4.93339 12.7725 5.05205 13.0631 5.05205C13.3547 5.05205 13.6393 4.93339 13.8454 4.72826C14.0516 4.52213 14.1692 4.23655 14.1692 3.94595C14.1692 3.65434 14.0516 3.36876 13.8454 3.16363C13.6403 2.95749 13.3547 2.83984 13.0631 2.83984Z" fill="white"/>
</svg>
