<svg width="21" height="22" viewBox="0 0 21 22" fill="none" xmlns="http://www.w3.org/2000/svg">
<path d="M13.9323 0.243652H1.72524C0.907758 0.243652 0.226562 0.924848 0.226562 1.74233C0.226562 2.55982 0.907758 3.24101 1.72524 3.24101H13.9595C14.777 3.24101 15.4582 2.55982 15.4582 1.74233C15.4308 0.897698 14.777 0.243652 13.9324 0.243652H13.9323Z" fill="white"/>
<path d="M8.64619 18.2358H1.72524C0.907758 18.2358 0.226562 18.917 0.226562 19.7345C0.226562 20.552 0.907758 21.2332 1.72524 21.2332H8.64619C9.46367 21.2332 10.1449 20.552 10.1449 19.7345C10.1451 18.917 9.46387 18.2358 8.64639 18.2358H8.64619Z" fill="white"/>
<path d="M18.7006 9.23975H1.72524C0.907758 9.23975 0.226562 9.92094 0.226562 10.7384C0.226562 11.5559 0.907758 12.2371 1.72524 12.2371H18.7279C19.5454 12.2371 20.2266 11.5559 20.2266 10.7384C20.1992 9.92094 19.5454 9.23975 18.7007 9.23975H18.7006Z" fill="white"/>
</svg>
